<?xml version="1.0" encoding="UTF-8"?>
<svg width="100" height="50" viewBox="0 0 100 50" xmlns="http://www.w3.org/2000/svg">
  <path fill="rgba(255,255,255,0.2)" d="M98.71 24.44c0 0-19.56 12.47-45.47 12.47-16.91 0-27.84-2.47-35.97-5.47-2.91-1.07-5.5-2.21-7.78-3.35-3.62-1.82-6.44-3.65-8.35-5.03L0 22.41l1.14-0.65c1.91-1.38 4.73-3.21 8.35-5.03 2.28-1.14 4.87-2.28 7.78-3.35 8.13-3 19.06-5.47 35.97-5.47 25.91 0 45.47 12.47 45.47 12.47l-0.33 2.03 0.33 2.03z"/>
  <circle fill="rgba(255,255,255,0.5)" cx="25" cy="20" r="3"/>
</svg>
